<svg xmlns="http://www.w3.org/2000/svg" viewBox="0 0 100 100">
  <!-- X Star Software brand mark — xstarkw.com -->
  <rect x="2" y="2" width="96" height="96" rx="24" fill="#15171d"/>
  <g transform="translate(50 51) scale(0.56) translate(-54 -46.5)">
    <!-- left arms (white) -->
    <polygon points="8,-8 47,31 31,47 8,24" fill="#f5f6f8"/>
    <polygon points="53,31 69,47 8,108 8,76" fill="#f5f6f8"/>
    <!-- right arms (blue) -->
    <polygon points="84,0 84,32 47,69 31,53" fill="#2469f2"/>
    <polygon points="69,53 92,76 92,108 53,69" fill="#2469f2"/>
    <!-- sparkle star -->
    <path d="M91 -15 C92.1 -9 94.5 -6.9 100 -6 C94.5 -5.1 92.1 -3 91 3 C89.9 -3 87.5 -5.1 82 -6 C87.5 -6.9 89.9 -9 91 -15 Z" fill="#2f7df6"/>
  </g>
</svg>
